# xmcd
#
# Track frame offsets:
#	150
#	27006
#	43289
#	63443
#	80974
#	99095
#	118239
#	140398
#	160228
#	175607
#
# Disc length: 2619 seconds
#
# Revision: 1
# Processed by: cddbd v1.5.1PL2 Copyright (c) Steve Scherf et al.
# Submitted via: audiograbber 1.83.01
#
DISCID=810a390a
DTITLE=Sy Timmis - Demo 1
DYEAR=1900
DGENRE=Drum and Bass
TTITLE0=Nao Vou Fugir -  Nao Vou Fugir
TTITLE1=Bebo Gilberto - So Good 
TTITLE2=Mistical - Swingtime
TTITLE3=Fernanda Porta - Swingtime
TTITLE4=Drumagick - Easy Boom
TTITLE5=Mistical - Mistical Dub
TTITLE6=US3 - Get Out
TTITLE7=Rosalia De Souza - Maria Moita
TTITLE8=Fernanda Porta - So Tinha Que Ser Voce
TTITLE9=DJ Marky and XRS - LK (Carolina Carol Bela)
EXTD=
EXTT0=
EXTT1=
EXTT2=
EXTT3=
EXTT4=
EXTT5=
EXTT6=
EXTT7=
EXTT8=
EXTT9=
PLAYORDER=
